<?xml version="1.0" encoding="utf-8"?>
<!-- Generator: Adobe Illustrator 16.0.0, SVG Export Plug-In . SVG Version: 6.00 Build 0)  -->
<!DOCTYPE svg PUBLIC "-//W3C//DTD SVG 1.1//EN" "http://www.w3.org/Graphics/SVG/1.1/DTD/svg11.dtd">
<svg version="1.1" id="Layer_1" xmlns="http://www.w3.org/2000/svg" xmlns:xlink="http://www.w3.org/1999/xlink" x="0px" y="0px"
	 viewBox="380.873 153.081 224.164 253.79"
	 enable-background="new 380.873 153.081 224.164 253.79" xml:space="preserve">
<path fill="#121212" d="M587.327,153.234c18.333-1.5,22.251,8.136,12.596,24.274c-11.724,20.414-44.65,50.847-68.05,55.363
	c0,0.333,0,0.667,0,1c15.999-2.333,27.993-5.558,43.991-7.891c0,0.333,2.281,4.566-9.552,18.482
	c-2.917,3.75-38.535,40.542-80.439,51.409c0,0.333,0,0.667,0,1c16.998-2.333,34.001-4.667,51-7c-23.364,38.104-81.265,71.509-116,69
	c-0.748,2.629-0.425,6.978-12.248,21.129c-8.25,9.875-10.88,13.835-27.752,26.871c10.191-51.782,39.141-102.388,69.281-137.783
	c36.333-42.667,67.718-57.217,73.719-61.217c-34.63,2.274-109.295,87.824-121,118c-0.333-0.667-0.667-1.333-1-2
	c-7.272-17.745,19.5-48,19.5-48c2.796-3.038,1.471-28.231,7.974-36.101c17.959-21.732,39.417-38.756,51.526-42.899
	c-1.667,7.333-3.333,14.667-5,22c0.667-0.333,1.333-0.667,2-1c12.189-29.735,71.016-54.294,77.223-56.501
	C566.819,157.232,571.604,154.613,587.327,153.234z"/>
</svg>
